{
  "asset": {
    "version": "2.0",
    "generator": "Ondra"
  },
  "extensionsUsed": [
    "KHR_materials_ior",
    "KHR_materials_transmission",
    "KHR_materials_volume",
    "KHR_materials_dispersion"
  ],
  "scenes": [
    {
      "name": "Scene",
      "nodes": [
        1
      ]
    }
  ],
  "scene": 0,
  "nodes": [
    {
      "matrix": [
        0.009999999776482582,
        0,
        0,
        0,
        0,
        -1.3435885348189617e-9,
        0.009999999434197101,
        0,
        0,
        -0.009999999434197101,
        -1.3435885348189617e-9,
        0,
        0,
        0,
        0,
        1
      ],
      "name": "blob",
      "extras": {
        "name": "blob"
      },
      "mesh": 0
    },
    {
      "name": "compressed.glb",
      "children": [
        0
      ]
    }
  ],
  "bufferViews": [
    {
      "buffer": 0,
      "byteOffset": 0,
      "byteLength": 437844,
      "target": 34962,
      "byteStride": 12
    },
    {
      "buffer": 0,
      "byteOffset": 437844,
      "byteLength": 437844,
      "target": 34962,
      "byteStride": 12
    },
    {
      "buffer": 0,
      "byteOffset": 875688,
      "byteLength": 870600,
      "target": 34963
    }
  ],
  "buffers": [
    {
      "byteLength": 1746288,
      "uri": "data:application/octet-stream;base64,"
    }
  ],
  "accessors": [
    {
      "bufferView": 0,
      "componentType": 5126,
      "count": 36487,
      "max": [
        1800.531005859375,
        2038.18603515625,
        2100.14501953125
      ],
      "min": [
        -2142.07470703125,
        -2278.57568359375,
        -2130.982421875
      ],
      "type": "VEC3"
    },
    {
      "bufferView": 1,
      "componentType": 5126,
      "count": 36487,
      "max": [
        0.9999980926513672,
        0.9999961853027344,
        0.9999980926513672
      ],
      "min": [
        -0.9999845027923584,
        -0.9999845027923584,
        -0.9999746084213257
      ],
      "type": "VEC3"
    },
    {
      "bufferView": 2,
      "componentType": 5125,
      "count": 217650,
      "max": [
        36486
      ],
      "min": [
        0
      ],
      "type": "SCALAR"
    }
  ],
  "materials": [
    {
      "name": "GLASS",
      "alphaMode": "BLEND",
      "doubleSided": true,
      "pbrMetallicRoughness": {
        "baseColorFactor": [
          0.7912979403281553,
          0.7912979403281553,
          0.7912979403281553,
          0.85
        ],
        "roughnessFactor": 0.01,
        "metallicFactor": 0
      },
      "extensions": {
        "KHR_materials_ior": {
          "ior": 5.0
        },
        "KHR_materials_transmission": {
          "transmissionFactor": 1
        },
        "KHR_materials_volume": {},
        "KHR_materials_dispersion": {
          "dispersion": 5.0
        }
      }
    }
  ],
  "meshes": [
    {
      "primitives": [
        {
          "mode": 4,
          "attributes": {
            "POSITION": 0,
            "NORMAL": 1
          },
          "indices": 2,
          "material": 0
        }
      ]
    }
  ]
}